0
SECTION
2
HEADER
9
$ACADVER
1
AC1024
9
$DWGCODEPAGE
3
ANSI_1250
9
$LASTSAVEDBY
1
jkola
9
$HANDSEED
5
1B2
9
$ANGBASE
50
0.0
9
$ANGDIR
70
0
9
$ATTMODE
70
1
9
$AUNITS
70
0
9
$AUPREC
70
0
9
$CECOLOR
62
256
9
$CELTSCALE
40
1.0
9
$CELTYPE
6
ByLayer
9
$CELWEIGHT
370
-1
9
$CLAYER
8
0
9
$CMLJUST
70
0
9
$CMLSCALE
40
20.0
9
$CMLSTYLE
2
Standard
9
$DIMSTYLE
2
Standard
9
$TEXTSIZE
40
2.5
9
$TEXTSTYLE
7
Standard
9
$LUNITS
70
2
9
$LUPREC
70
4
9
$EXTNAMES
290
1
9
$INSBASE
10
0.0
20
0.0
30
0.0
9
$INSUNITS
70
0
9
$LTSCALE
40
1.0
9
$LWDISPLAY
290
0
9
$PDMODE
70
0
9
$PDSIZE
40
0.0
9
$PLINEGEN
70
0
9
$PSLTSCALE
70
1
9
$TDCREATE
40
2458633.8618861
9
$TDUCREATE
40
2458633.77855278
9
$TDUPDATE
40
2458699.94178093
9
$TDUUPDATE
40
2458699.85844758
9
$TDINDWG
40
0.635340775462963
9
$UCSORG
10
0.0
20
0.0
30
0.0
9
$UCSXDIR
10
1.0
20
0.0
30
0.0
9
$UCSYDIR
10
0.0
20
1.0
30
0.0
9
$DIMADEC
70
0
9
$DIMALT
70
0
9
$DIMALTD
70
2
9
$DIMALTF
40
25.4
9
$DIMALTRND
40
0.0
9
$DIMALTTD
70
2
9
$DIMALTTZ
70
0
9
$DIMALTU
70
2
9
$DIMALTZ
70
0
9
$DIMAPOST
1
[]
9
$DIMATFIT
70
3
9
$DIMAUNIT
70
0
9
$DIMASZ
40
0.18
9
$DIMAZIN
70
3
9
$DIMSAH
70
0
9
$DIMBLK
1

9
$DIMLDRBLK
1

9
$DIMCEN
40
0.09
9
$DIMCLRD
70
0
9
$DIMCLRE
70
0
9
$DIMCLRT
70
0
9
$DIMDEC
70
4
9
$DIMDLE
40
0.0
9
$DIMDLI
40
0.38
9
$DIMDSEP
70
46
9
$DIMEXE
40
0.18
9
$DIMEXO
40
0.0625
9
$DIMFXLON
70
0
9
$DIMFXL
40
1.0
9
$DIMGAP
40
0.09
9
$DIMJUST
70
0
9
$DIMLFAC
40
1.0
9
$DIMLUNIT
70
2
9
$DIMLWD
70
-2
9
$DIMLWE
70
-2
9
$DIMPOST
1
<>
9
$DIMRND
40
0.0
9
$DIMSCALE
40
1.0
9
$DIMSD1
70
0
9
$DIMSD2
70
0
9
$DIMSE1
70
0
9
$DIMSE2
70
0
9
$DIMSOXD
70
1
9
$DIMTAD
70
0
9
$DIMTDEC
70
4
9
$DIMTFAC
40
1.0
9
$DIMTIH
70
0
9
$DIMTIX
70
0
9
$DIMTM
40
0.0
9
$DIMTMOVE
70
0
9
$DIMTOFL
70
0
9
$DIMTOH
70
0
9
$DIMTOL
70
0
9
$DIMLIM
70
0
9
$DIMTOLJ
70
1
9
$DIMTP
40
0.0
9
$DIMTXT
40
0.18
9
$DIMTXTDIRECTION
70
1
9
$DIMTZIN
70
0
9
$DIMZIN
70
0
9
$DIMFRAC
70
0
9
$DIMLTYPE
6
ByBlock
9
$DIMLTEX1
6
ByBlock
9
$DIMLTEX2
6
ByBlock
0
ENDSEC
0
SECTION
2
CLASSES
0
CLASS
1
RASTERVARIABLES
2
AcDbRasterVariables
3
ISM
90
0
91
1
280
0
281
0
0
ENDSEC
0
SECTION
2
TABLES
0
TABLE
2
APPID
5
4
330
0
100
AcDbSymbolTable
70
4
0
APPID
5
18
330
4
100
AcDbSymbolTableRecord
100
AcDbRegAppTableRecord
2
ACAD
70
0
0
APPID
5
2A
330
4
100
AcDbSymbolTableRecord
100
AcDbRegAppTableRecord
2
AcCmTransparency
70
0
0
APPID
5
2B
330
4
100
AcDbSymbolTableRecord
100
AcDbRegAppTableRecord
2
GradientColor1ACI
70
0
0
APPID
5
2C
330
4
100
AcDbSymbolTableRecord
100
AcDbRegAppTableRecord
2
GradientColor2ACI
70
0
0
ENDTAB
0
TABLE
2
VPORT
5
1
330
0
100
AcDbSymbolTable
70
1
0
VPORT
5
2
330
1
100
AcDbSymbolTableRecord
100
AcDbViewportTableRecord
2
*Active
70
0
10
0.0
20
0.0
11
1.0
21
1.0
12
125.000000000001
22
121.193979239467
13
0.0
23
0.0
14
0.5
24
0.5
15
10.0
25
10.0
16
0.0
26
0.0
36
1.0
17
0.0
27
0.0
37
0.0
40
415.764282351488
41
2.54125412541254
75
0
76
0
0
ENDTAB
0
TABLE
2
LTYPE
5
6
330
0
100
AcDbSymbolTable
70
3
0
LTYPE
5
16
330
6
100
AcDbSymbolTableRecord
100
AcDbLinetypeTableRecord
2
ByBlock
70
0
3

72
65
73
0
40
0.0
0
LTYPE
5
15
330
6
100
AcDbSymbolTableRecord
100
AcDbLinetypeTableRecord
2
ByLayer
70
0
3

72
65
73
0
40
0.0
0
LTYPE
5
14
330
6
100
AcDbSymbolTableRecord
100
AcDbLinetypeTableRecord
2
Continuous
70
0
3
Solid line
72
65
73
0
40
0.0
0
ENDTAB
0
TABLE
2
LAYER
5
5
330
0
100
AcDbSymbolTable
70
4
0
LAYER
5
13
330
5
100
AcDbSymbolTableRecord
100
AcDbLayerTableRecord
2
0
70
0
62
7
6
Continuous
290
1
370
-3
390
0
0
LAYER
5
23
330
5
100
AcDbSymbolTableRecord
100
AcDbLayerTableRecord
2
text
70
0
62
7
6
Continuous
290
1
370
-3
390
0
0
LAYER
5
A1
330
5
100
AcDbSymbolTableRecord
100
AcDbLayerTableRecord
2
Defpoints
70
0
62
7
6
Continuous
290
0
370
-3
390
0
0
LAYER
5
138
330
5
100
AcDbSymbolTableRecord
100
AcDbLayerTableRecord
2
8
70
0
62
7
6
Continuous
290
1
370
-3
390
0
0
ENDTAB
0
TABLE
2
STYLE
5
7
330
0
100
AcDbSymbolTable
70
1
0
STYLE
5
17
330
7
100
AcDbSymbolTableRecord
100
AcDbTextStyleTableRecord
2
Standard
3
simplex.shx
70
0
71
0
40
0.0
41
1.0
42
0.0
50
0.0
0
ENDTAB
0
TABLE
2
DIMSTYLE
5
9
330
0
100
AcDbSymbolTable
70
1
100
AcDbDimStyleTable
0
DIMSTYLE
105
19
330
9
100
AcDbSymbolTableRecord
100
AcDbDimStyleTableRecord
2
Standard
3
<>
4
[]
40
1.0
41
0.18
42
0.0625
43
0.38
44
0.18
45
0.0
46
0.0
47
0.0
49
1.0
70
0
71
0
72
0
73
0
74
0
75
0
76
0
77
0
78
0
79
3
140
0.18
141
0.09
143
25.4
144
1.0
146
1.0
147
0.09
148
0.0
170
0
171
2
172
0
174
0
175
1
176
0
177
0
178
0
179
0
271
4
272
4
273
2
274
2
275
0
276
0
277
2
278
46
279
0
280
0
281
0
282
0
283
1
284
0
285
0
286
0
289
3
290
0
294
1
340
17
173
0
345
16
346
16
347
16
371
-2
372
-2
0
ENDTAB
0
TABLE
2
VIEW
5
3
330
0
100
AcDbSymbolTable
70
0
0
ENDTAB
0
TABLE
2
UCS
5
B
330
0
100
AcDbSymbolTable
70
0
0
ENDTAB
0
TABLE
2
BLOCK_RECORD
5
C
330
0
100
AcDbSymbolTable
70
4
0
BLOCK_RECORD
5
1B
330
C
100
AcDbSymbolTableRecord
100
AcDbBlockTableRecord
2
*Model_Space
340
1F
0
BLOCK_RECORD
5
24
330
C
100
AcDbSymbolTableRecord
100
AcDbBlockTableRecord
2
*Paper_Space
340
29
0
BLOCK_RECORD
5
A5
330
C
100
AcDbSymbolTableRecord
100
AcDbBlockTableRecord
2
*D0
340
0
0
BLOCK_RECORD
5
B5
330
C
100
AcDbSymbolTableRecord
100
AcDbBlockTableRecord
2
*D1
340
0
0
ENDTAB
0
ENDSEC
0
SECTION
2
BLOCKS
0
BLOCK
5
1D
330
1B
100
AcDbEntity
67
0
8
0
100
AcDbBlockBegin
2
*Model_Space
70
0
10
0.0
20
0.0
30
0.0
3
*Model_Space
0
ENDBLK
5
1C
330
1B
100
AcDbEntity
8
0
100
AcDbBlockEnd
0
BLOCK
5
26
330
24
100
AcDbEntity
67
1
8
0
100
AcDbBlockBegin
2
*Paper_Space
70
0
10
0.0
20
0.0
30
0.0
3
*Paper_Space
0
ENDBLK
5
25
330
24
100
AcDbEntity
8
0
100
AcDbBlockEnd
0
BLOCK
5
A6
330
A5
100
AcDbEntity
8
0
100
AcDbBlockBegin
2
*D0
70
1
10
0.0
20
0.0
30
0.0
3
*D0
0
LINE
5
A8
330
A5
100
AcDbEntity
8
0
62
0
6
ByBlock
370
-2
48
1.0
60
0
100
AcDbLine
10
20.0032917756067
20
-0.0624999999999929
30
0.0
11
20.0032917756067
21
-21.2481134219284
31
0.0
39
0.0
210
0.0
220
0.0
230
1.0
0
LINE
5
A9
330
A5
100
AcDbEntity
8
0
62
0
6
ByBlock
370
-2
48
1.0
60
0
100
AcDbLine
10
-0.0000000000000071
20
-0.0624999999999929
30
0.0
11
-0.0000000000000071
21
-21.2481134219284
31
0.0
39
0.0
210
0.0
220
0.0
230
1.0
0
LINE
5
AA
330
A5
100
AcDbEntity
8
0
62
0
6
ByBlock
370
-2
48
1.0
60
0
100
AcDbLine
10
19.8232917756067
20
-21.0681134219284
30
0.0
11
10.6230744592319
21
-21.0681134219284
31
0.0
39
0.0
210
0.0
220
0.0
230
1.0
0
LINE
5
AB
330
A5
100
AcDbEntity
8
0
62
0
6
ByBlock
370
-2
48
1.0
60
0
100
AcDbLine
10
0.179999999999993
20
-21.0681134219284
30
0.0
11
9.38021731637479
21
-21.0681134219284
31
0.0
39
0.0
210
0.0
220
0.0
230
1.0
0
SOLID
5
AC
330
A5
100
AcDbEntity
8
0
62
0
6
ByLayer
370
-1
48
1.0
60
0
100
AcDbTrace
10
19.8232917756067
20
-21.0981134219284
30
0.0
11
19.8232917756067
21
-21.0381134219284
31
0.0
12
20.0032917756067
22
-21.0681134219284
32
0.0
13
20.0032917756067
23
-21.0681134219284
33
0.0
39
0.0
210
0.0
220
0.0
230
1.0
0
SOLID
5
AD
330
A5
100
AcDbEntity
8
0
62
0
6
ByLayer
370
-1
48
1.0
60
0
100
AcDbTrace
10
0.179999999999993
20
-21.0381134219284
30
0.0
11
0.179999999999993
21
-21.0981134219284
31
0.0
12
-0.0000000000000071
22
-21.0681134219284
32
0.0
13
-0.0000000000000071
23
-21.0681134219284
33
0.0
39
0.0
210
0.0
220
0.0
230
1.0
0
MTEXT
5
AE
330
A5
100
AcDbEntity
8
0
62
0
6
ByLayer
370
-1
48
1.0
60
0
100
AcDbMText
10
10.0016458878034
20
-21.0681134219284
30
0.0
210
0.0
220
0.0
230
1.0
1
\A1;20.0033
40
0.18
41
0.0
44
1.0
11
1.0
21
0.0
31
0.0
71
5
72
1
73
1
7
Standard
0
POINT
5
AF
330
A5
100
AcDbEntity
8
Defpoints
62
0
6
ByLayer
370
-1
48
1.0
60
0
100
AcDbPoint
10
20.0032917756067
20
0.0000000000000071
30
0.0
39
0.0
210
0.0
220
0.0
230
1.0
50
360.0
0
POINT
5
B0
330
A5
100
AcDbEntity
8
Defpoints
62
0
6
ByLayer
370
-1
48
1.0
60
0
100
AcDbPoint
10
-0.0000000000000071
20
0.0000000000000071
30
0.0
39
0.0
210
0.0
220
0.0
230
1.0
50
360.0
0
POINT
5
B1
330
A5
100
AcDbEntity
8
Defpoints
62
0
6
ByLayer
370
-1
48
1.0
60
0
100
AcDbPoint
10
-0.0000000000000071
20
-21.0681134219284
30
0.0
39
0.0
210
0.0
220
0.0
230
1.0
50
360.0
0
ENDBLK
5
A7
330
A5
100
AcDbEntity
8
0
100
AcDbBlockEnd
0
BLOCK
5
B6
330
B5
100
AcDbEntity
8
0
100
AcDbBlockBegin
2
*D1
70
1
10
0.0
20
0.0
30
0.0
3
*D1
0
LINE
5
B8
330
B5
100
AcDbEntity
8
0
62
0
6
ByBlock
370
-2
48
1.0
60
0
100
AcDbLine
10
20.0657917756067
20
21.7237117036462
30
0.0
11
40.7443530474686
21
21.7237117036462
31
0.0
39
0.0
210
0.0
220
0.0
230
1.0
0
LINE
5
B9
330
B5
100
AcDbEntity
8
0
62
0
6
ByBlock
370
-2
48
1.0
60
0
100
AcDbLine
10
20.0657917756067
20
0.0000000000000071
30
0.0
11
40.7443530474686
21
0.0000000000000058
31
0.0
39
0.0
210
0.0
220
0.0
230
1.0
0
LINE
5
BA
330
B5
100
AcDbEntity
8
0
62
0
6
ByBlock
370
-2
48
1.0
60
0
100
AcDbLine
10
40.5643530474686
20
21.5437117036462
30
0.0
11
40.5643530474686
21
11.4661415661088
31
0.0
39
0.0
210
0.0
220
0.0
230
1.0
0
LINE
5
BB
330
B5
100
AcDbEntity
8
0
62
0
6
ByBlock
370
-2
48
1.0
60
0
100
AcDbLine
10
40.5643530474686
20
0.180000000000006
30
0.0
11
40.5643530474686
21
10.2575701375374
31
0.0
39
0.0
210
0.0
220
0.0
230
1.0
0
SOLID
5
BC
330
B5
100
AcDbEntity
8
0
62
0
6
ByLayer
370
-1
48
1.0
60
0
100
AcDbTrace
10
40.5943530474686
20
21.5437117036462
30
0.0
11
40.5343530474686
21
21.5437117036462
31
0.0
12
40.5643530474686
22
21.7237117036462
32
0.0
13
40.5643530474686
23
21.7237117036462
33
0.0
39
0.0
210
0.0
220
0.0
230
1.0
0
SOLID
5
BD
330
B5
100
AcDbEntity
8
0
62
0
6
ByLayer
370
-1
48
1.0
60
0
100
AcDbTrace
10
40.5343530474686
20
0.180000000000006
30
0.0
11
40.5943530474686
21
0.180000000000006
31
0.0
12
40.5643530474686
22
0.0000000000000058
32
0.0
13
40.5643530474686
23
0.0000000000000058
33
0.0
39
0.0
210
0.0
220
0.0
230
1.0
0
MTEXT
5
BE
330
B5
100
AcDbEntity
8
0
62
0
6
ByLayer
370
-1
48
1.0
60
0
100
AcDbMText
10
40.5643530474686
20
10.8618558518231
30
0.0
210
0.0
220
0.0
230
1.0
1
\A1;21.7237
40
0.18
41
0.0
44
1.0
11
0.0000000000000001
21
1.0
31
0.0
71
5
72
1
73
1
7
Standard
0
POINT
5
BF
330
B5
100
AcDbEntity
8
Defpoints
62
0
6
ByLayer
370
-1
48
1.0
60
0
100
AcDbPoint
10
20.0032917756067
20
21.7237117036462
30
0.0
39
0.0
210
0.0
220
0.0
230
1.0
50
360.0
0
POINT
5
C0
330
B5
100
AcDbEntity
8
Defpoints
62
0
6
ByLayer
370
-1
48
1.0
60
0
100
AcDbPoint
10
20.0032917756067
20
0.0000000000000071
30
0.0
39
0.0
210
0.0
220
0.0
230
1.0
50
360.0
0
POINT
5
C1
330
B5
100
AcDbEntity
8
Defpoints
62
0
6
ByLayer
370
-1
48
1.0
60
0
100
AcDbPoint
10
40.5643530474686
20
0.0000000000000058
30
0.0
39
0.0
210
0.0
220
0.0
230
1.0
50
360.0
0
ENDBLK
5
B7
330
B5
100
AcDbEntity
8
0
100
AcDbBlockEnd
0
ENDSEC
0
SECTION
2
ENTITIES
0
VIEWPORT
5
28
330
24
100
AcDbEntity
67
1
8
0
62
256
6
ByLayer
370
-1
48
1.0
60
0
100
AcDbViewport
10
0.0
20
0.0
30
0.0
40
297.0
41
210.0
68
1
69
1
12
50.0
22
100.0
13
0.0
23
0.0
14
10.0
24
10.0
15
10.0
25
10.0
16
0.0
26
0.0
36
1.0
17
0.0
27
0.0
37
0.0
42
50.0
43
0.0
44
0.0
45
250.0
50
0.0
51
0.0
72
1000
90
819232
110
0.0
120
0.0
130
0.0
111
1.0
121
0.0
131
0.0
112
0.0
122
1.0
132
0.0
0
LWPOLYLINE
5
D4
330
1B
100
AcDbEntity
67
0
8
0
62
256
6
ByLayer
370
-1
48
1.0
60
0
100
AcDbPolyline
90
8
70
1
38
0.0
39
0.0
10
50.0000000000001
20
300.0
40
0.0
41
0.0
42
0.0
10
50.0
20
50.0
40
0.0
41
0.0
42
0.0
10
150.000000000001
20
50.0000000000002
40
0.0
41
0.0
42
0.0
10
150.000000000002
20
225.0
40
0.0
41
0.0
42
-0.414213562373095
10
175.000000000002
20
250.0
40
0.0
41
0.0
42
0.0
10
250.000000000002
20
250.0
40
0.0
41
0.0
42
0.0
10
250.0
20
325.0
40
0.0
41
0.0
42
0.0
10
75.0000000000001
20
325.0
40
0.0
41
0.0
42
-0.414213562373095
210
0.0
220
0.0
230
1.0
0
MTEXT
5
F0
330
1B
100
AcDbEntity
67
0
8
0
62
256
6
ByLayer
370
-1
48
1.0
60
0
100
AcDbMText
10
50.0
20
24.7641820006757
30
0.0
210
0.0
220
0.0
230
1.0
1
{[B]1162}
40
10.0
41
162.753663062735
44
1.0
11
1.0
21
0.0
31
0.0
71
1
72
5
73
1
7
Standard
0
MTEXT
5
FE
330
1B
100
AcDbEntity
67
0
8
0
62
256
6
ByLayer
370
-1
48
1.0
60
0
100
AcDbMText
10
50.0
20
0.13342052513778
30
0.0
210
0.0
220
0.0
230
1.0
1
{[P]9001}
40
10.0
41
162.753663062735
44
1.0
11
1.0
21
0.0
31
0.0
71
1
72
5
73
1
7
Standard
0
MTEXT
5
10C
330
1B
100
AcDbEntity
67
0
8
0
62
256
6
ByLayer
370
-1
48
1.0
60
0
100
AcDbMText
10
50.0000000000001
20
-22.58935175209
30
0.0
210
0.0
220
0.0
230
1.0
1
{[M]A}
40
10.0
41
162.753663062735
44
1.0
11
1.0
21
0.0
31
0.0
71
1
72
5
73
1
7
Standard
0
MTEXT
5
11A
330
1B
100
AcDbEntity
67
0
8
0
62
256
6
ByLayer
370
-1
48
1.0
60
0
100
AcDbMText
10
50.0000000000001
20
-44.6809359105058
30
0.0
210
0.0
220
0.0
230
1.0
1
{[T]6}
40
10.0
41
162.753663062735
44
1.0
11
1.0
21
0.0
31
0.0
71
1
72
5
73
1
7
Standard
0
MTEXT
5
128
330
1B
100
AcDbEntity
67
0
8
0
62
256
6
ByLayer
370
-1
48
1.0
60
0
100
AcDbMText
10
50.0000000000001
20
-67.4037081877335
30
0.0
210
0.0
220
0.0
230
1.0
1
{[Q]1}
40
10.0
41
162.753663062735
44
1.0
11
1.0
21
0.0
31
0.0
71
1
72
5
73
1
7
Standard
0
TEXT
5
137
330
1B
100
AcDbEntity
67
0
8
8
62
256
6
ByLayer
370
-1
48
1.0
60
0
100
AcDbText
1
Test text
10
0.0
20
0.0
30
0.0
40
5.0
41
1.0
50
0.0
51
0.0
7
Standard
11
0.0
21
0.0
31
0.0
210
0.0
220
0.0
230
1.0
72
0
100
AcDbText
73
1
0
TEXT
5
199
330
1B
100
AcDbEntity
67
0
8
8
62
256
6
ByLayer
370
-1
48
1.0
60
0
100
AcDbText
1
Test text
10
0.0
20
0.0
30
0.0
40
5.0
41
1.0
50
0.0
51
0.0
7
Standard
11
0.0
21
0.0
31
0.0
210
0.0
220
0.0
230
1.0
72
0
100
AcDbText
73
1
0
TEXT
5
1A9
330
1B
100
AcDbEntity
67
0
8
8
62
256
6
ByLayer
370
-1
48
1.0
60
0
100
AcDbText
1
Test text
10
0.0
20
0.0
30
0.0
40
5.0
41
1.0
50
0.0
51
0.0
7
Standard
11
0.0
21
0.0
31
0.0
210
0.0
220
0.0
230
1.0
72
0
100
AcDbText
73
1
0
ENDSEC
0
SECTION
2
OBJECTS
0
DICTIONARY
5
1AA
330
0
100
AcDbDictionary
280
0
281
1
3
ACAD_GROUP
350
1AB
3
ACAD_LAYOUT
350
1AC
3
ACAD_MLINESTYLE
350
1B0
0
DICTIONARY
5
1AB
330
1AA
100
AcDbDictionary
280
0
281
1
0
DICTIONARY
5
1AC
330
1AA
100
AcDbDictionary
280
0
281
1
3
Layout1
350
29
3
Model
350
1F
0
DICTIONARY
5
1B0
330
1AA
100
AcDbDictionary
280
0
281
1
3
Standard
350
1A
0
LAYOUT
5
29
330
1AC
100
AcDbPlotSettings
1

2
none_device
4
ISO_A4_(210.00_x_297.00_MM)
6

40
7.5
41
20.0
42
7.5
43
20.0
44
210.0
45
297.0
46
0.0
47
0.0
48
0.0
49
0.0
140
0.0
141
0.0
142
1.0
143
1.0
70
688
72
1
73
1
74
1
7

75
0
76
0
77
2
78
300
147
1.0
148
0.0
149
0.0
100
AcDbLayout
1
Layout1
70
1
71
1
10
-7.5
20
-7.5
11
277.0
21
202.5
12
0.0
22
0.0
32
0.0
14
25.7
24
19.5
34
0.0
15
231.3
25
175.5
35
0.0
146
0.0
13
0.0
23
0.0
33
0.0
16
1.0
26
0.0
36
0.0
17
0.0
27
1.0
37
0.0
76
0
330
24
0
LAYOUT
5
1F
330
1AC
100
AcDbPlotSettings
1

2
none_device
4
ISO_A4_(210.00_x_297.00_MM)
6

40
7.5
41
20.0
42
7.5
43
20.0
44
210.0
45
297.0
46
0.0
47
0.0
48
0.0
49
0.0
140
0.0
141
0.0
142
1.0
143
1.0
70
11952
72
1
73
1
74
1
7

75
0
76
0
77
2
78
300
147
1.0
148
0.0
149
0.0
100
AcDbLayout
1
Model
70
1
71
1
10
-7.5
20
-7.5
11
277.0
21
202.5
12
0.0
22
0.0
32
0.0
14
0.0
24
-82.6120415210668
34
0.0
15
250.000000000002
25
325.0
35
0.0
146
0.0
13
0.0
23
0.0
33
0.0
16
1.0
26
0.0
36
0.0
17
0.0
27
1.0
37
0.0
76
0
330
1B
0
MLINESTYLE
5
1A
330
1B0
100
AcDbMlineStyle
2
Standard
70
0
3

62
256
51
90.0
52
90.0
71
2
49
-0.5
62
256
6
ByLayer
49
0.5
62
256
6
ByLayer
0
ENDSEC
0
EOF
