0
SECTION
2
HEADER
9
$ACADVER
1
AC1024
9
$DWGCODEPAGE
3
ANSI_1250
9
$LASTSAVEDBY
1
jkola
9
$HANDSEED
5
117D
9
$ANGBASE
50
0.0
9
$ANGDIR
70
0
9
$ATTMODE
70
1
9
$AUNITS
70
0
9
$AUPREC
70
0
9
$CECOLOR
62
256
9
$CELTSCALE
40
1.0
9
$CELTYPE
6
ByBlock
9
$CELWEIGHT
370
-1
9
$CLAYER
8
0
9
$CMLJUST
70
0
9
$CMLSCALE
40
1.0
9
$CMLSTYLE
2
Standard
9
$DIMSTYLE
2
Standard
9
$TEXTSIZE
40
2.5
9
$TEXTSTYLE
7
Standard
9
$LUNITS
70
2
9
$LUPREC
70
4
9
$EXTNAMES
290
1
9
$INSBASE
10
0.0
20
0.0
30
0.0
9
$INSUNITS
70
0
9
$LTSCALE
40
1.0
9
$LWDISPLAY
290
0
9
$PDMODE
70
0
9
$PDSIZE
40
0.0
9
$PLINEGEN
70
0
9
$PSLTSCALE
70
0
9
$TDCREATE
40
2458682.79345
9
$TDUCREATE
40
2458682.71011667
9
$TDUPDATE
40
2458783.3353647
9
$TDUUPDATE
40
2458783.25203139
9
$TDINDWG
40
0.0056997916666667
9
$UCSORG
10
0.0
20
0.0
30
0.0
9
$UCSXDIR
10
1.0
20
0.0
30
0.0
9
$UCSYDIR
10
0.0
20
1.0
30
0.0
9
$DIMADEC
70
0
9
$DIMALT
70
0
9
$DIMALTD
70
2
9
$DIMALTF
40
25.4
9
$DIMALTRND
40
0.0
9
$DIMALTTD
70
2
9
$DIMALTTZ
70
0
9
$DIMALTU
70
2
9
$DIMALTZ
70
0
9
$DIMAPOST
1
[]
9
$DIMATFIT
70
3
9
$DIMAUNIT
70
0
9
$DIMASZ
40
0.18
9
$DIMAZIN
70
3
9
$DIMSAH
70
0
9
$DIMBLK
1

9
$DIMLDRBLK
1

9
$DIMCEN
40
0.09
9
$DIMCLRD
70
0
9
$DIMCLRE
70
0
9
$DIMCLRT
70
0
9
$DIMDEC
70
4
9
$DIMDLE
40
0.0
9
$DIMDLI
40
0.38
9
$DIMDSEP
70
46
9
$DIMEXE
40
0.18
9
$DIMEXO
40
0.0625
9
$DIMFXLON
70
0
9
$DIMFXL
40
1.0
9
$DIMGAP
40
0.09
9
$DIMJUST
70
0
9
$DIMLFAC
40
1.0
9
$DIMLUNIT
70
2
9
$DIMLWD
70
-2
9
$DIMLWE
70
-2
9
$DIMPOST
1
<>
9
$DIMRND
40
0.0
9
$DIMSCALE
40
1.0
9
$DIMSD1
70
0
9
$DIMSD2
70
0
9
$DIMSE1
70
0
9
$DIMSE2
70
0
9
$DIMSOXD
70
1
9
$DIMTAD
70
0
9
$DIMTDEC
70
4
9
$DIMTFAC
40
1.0
9
$DIMTIH
70
0
9
$DIMTIX
70
0
9
$DIMTM
40
0.0
9
$DIMTMOVE
70
0
9
$DIMTOFL
70
0
9
$DIMTOH
70
0
9
$DIMTOL
70
0
9
$DIMLIM
70
0
9
$DIMTOLJ
70
1
9
$DIMTP
40
0.0
9
$DIMTXT
40
0.18
9
$DIMTXTDIRECTION
70
0
9
$DIMTZIN
70
0
9
$DIMZIN
70
0
9
$DIMFRAC
70
0
9
$DIMLTYPE
6
ByBlock
9
$DIMLTEX1
6
ByBlock
9
$DIMLTEX2
6
ByBlock
0
ENDSEC
0
SECTION
2
CLASSES
0
CLASS
1
RASTERVARIABLES
2
AcDbRasterVariables
3
ISM
90
0
91
1
280
0
281
0
0
ENDSEC
0
SECTION
2
TABLES
0
TABLE
2
APPID
5
9
330
0
100
AcDbSymbolTable
70
9
0
APPID
5
12
330
9
100
AcDbSymbolTableRecord
100
AcDbRegAppTableRecord
2
ACAD
70
0
0
APPID
5
122
330
9
100
AcDbSymbolTableRecord
100
AcDbRegAppTableRecord
2
AcCmTransparency
70
0
0
APPID
5
123
330
9
100
AcDbSymbolTableRecord
100
AcDbRegAppTableRecord
2
GradientColor1ACI
70
0
0
APPID
5
124
330
9
100
AcDbSymbolTableRecord
100
AcDbRegAppTableRecord
2
GradientColor2ACI
70
0
0
APPID
5
7A7
330
9
100
AcDbSymbolTableRecord
100
AcDbRegAppTableRecord
2
MCS_DIM1
70
0
0
APPID
5
7A8
330
9
100
AcDbSymbolTableRecord
100
AcDbRegAppTableRecord
2
McsXdata5
70
0
0
APPID
5
7AB
330
9
100
AcDbSymbolTableRecord
100
AcDbRegAppTableRecord
2
MCS_DOCUMENT_ID
70
0
0
APPID
5
7B4
330
9
100
AcDbSymbolTableRecord
100
AcDbRegAppTableRecord
2
MCS_PARAMS_DATA
70
0
0
APPID
5
7B6
330
9
100
AcDbSymbolTableRecord
100
AcDbRegAppTableRecord
2
MC_VERSION_DATA
70
0
0
ENDTAB
0
TABLE
2
VPORT
5
8
330
0
100
AcDbSymbolTable
70
1
0
VPORT
5
21
330
8
100
AcDbSymbolTableRecord
100
AcDbViewportTableRecord
2
*Active
70
0
10
0.0
20
0.0
11
1.0
21
1.0
12
836.682785
22
725.342092
13
0.0
23
0.0
14
0.5
24
0.5
15
0.5
25
0.5
16
0.0
26
0.0
36
1.0
17
0.0
27
0.0
37
0.0
40
292.884805
41
2.081034
75
0
76
0
0
ENDTAB
0
TABLE
2
LTYPE
5
5
330
0
100
AcDbSymbolTable
70
3
0
LTYPE
5
14
330
5
100
AcDbSymbolTableRecord
100
AcDbLinetypeTableRecord
2
ByBlock
70
0
3

72
65
73
0
40
0.0
0
LTYPE
5
15
330
5
100
AcDbSymbolTableRecord
100
AcDbLinetypeTableRecord
2
ByLayer
70
0
3

72
65
73
0
40
0.0
0
LTYPE
5
16
330
5
100
AcDbSymbolTableRecord
100
AcDbLinetypeTableRecord
2
Continuous
70
0
3
Solid line
72
65
73
0
40
0.0
0
ENDTAB
0
TABLE
2
LAYER
5
2
330
0
100
AcDbSymbolTable
70
4
0
LAYER
5
10
330
2
100
AcDbSymbolTableRecord
100
AcDbLayerTableRecord
2
0
70
0
62
7
6
Continuous
290
1
370
-3
390
0
0
LAYER
5
38
330
2
100
AcDbSymbolTableRecord
100
AcDbLayerTableRecord
2
1
70
0
62
7
6
Continuous
290
1
370
-3
390
0
0
LAYER
5
39
330
2
100
AcDbSymbolTableRecord
100
AcDbLayerTableRecord
2
5
70
0
62
7
6
Continuous
290
1
370
-3
390
0
0
LAYER
5
3A
330
2
100
AcDbSymbolTableRecord
100
AcDbLayerTableRecord
2
8
70
0
62
7
6
Continuous
290
1
370
-3
390
0
0
ENDTAB
0
TABLE
2
STYLE
5
3
330
0
100
AcDbSymbolTable
70
1
0
STYLE
5
11
330
3
100
AcDbSymbolTableRecord
100
AcDbTextStyleTableRecord
2
Standard
3
simplex.shx
70
0
71
0
40
0.0
41
1.0
42
0.0
50
0.0
0
ENDTAB
0
TABLE
2
DIMSTYLE
5
A
330
0
100
AcDbSymbolTable
70
1
100
AcDbDimStyleTable
0
DIMSTYLE
105
20
330
A
100
AcDbSymbolTableRecord
100
AcDbDimStyleTableRecord
2
Standard
3
<>
4
[]
40
1.0
41
0.18
42
0.0625
43
0.38
44
0.18
45
0.0
46
0.0
47
0.0
49
1.0
70
0
71
0
72
0
73
0
74
0
75
0
76
0
77
0
78
0
79
3
140
0.18
141
0.09
143
25.4
144
1.0
146
1.0
147
0.09
148
0.0
170
0
171
2
172
0
174
0
175
1
176
0
177
0
178
0
179
0
271
4
272
4
273
2
274
2
275
0
276
0
277
2
278
46
279
0
280
0
281
0
282
0
283
1
284
0
285
0
286
0
289
3
290
0
294
0
340
11
173
0
345
14
346
14
347
14
371
-2
372
-2
0
ENDTAB
0
TABLE
2
VIEW
5
6
330
0
100
AcDbSymbolTable
70
0
0
ENDTAB
0
TABLE
2
UCS
5
7
330
0
100
AcDbSymbolTable
70
0
0
ENDTAB
0
TABLE
2
BLOCK_RECORD
5
1
330
0
100
AcDbSymbolTable
70
2
0
BLOCK_RECORD
5
1D
330
1
100
AcDbSymbolTableRecord
100
AcDbBlockTableRecord
2
*Model_Space
340
1E
0
BLOCK_RECORD
5
1B
330
1
100
AcDbSymbolTableRecord
100
AcDbBlockTableRecord
2
*Paper_Space
340
1C
0
ENDTAB
0
ENDSEC
0
SECTION
2
BLOCKS
0
BLOCK
5
5D
330
1D
100
AcDbEntity
67
0
8
0
100
AcDbBlockBegin
2
*Model_Space
70
0
10
0.0
20
0.0
30
0.0
3
*Model_Space
0
ENDBLK
5
5E
330
1D
100
AcDbEntity
8
0
100
AcDbBlockEnd
0
BLOCK
5
5F
330
1B
100
AcDbEntity
67
1
8
0
100
AcDbBlockBegin
2
*Paper_Space
70
0
10
0.0
20
0.0
30
0.0
3
*Paper_Space
0
ENDBLK
5
60
330
1B
100
AcDbEntity
8
0
100
AcDbBlockEnd
0
ENDSEC
0
SECTION
2
ENTITIES
0
VIEWPORT
5
120
330
1B
100
AcDbEntity
67
1
8
0
62
256
6
ByLayer
370
-1
48
1.0
60
0
100
AcDbViewport
10
0.0
20
0.0
30
0.0
40
297.0
41
210.0
68
1
69
1
12
50.0
22
100.0
13
0.0
23
0.0
14
10.0
24
10.0
15
10.0
25
10.0
16
0.0
26
0.0
36
1.0
17
0.0
27
0.0
37
0.0
42
50.0
43
0.0
44
0.0
45
250.0
50
0.0
51
0.0
72
1000
90
819232
110
0.0
120
0.0
130
0.0
111
1.0
121
0.0
131
0.0
112
0.0
122
1.0
132
0.0
0
TEXT
5
BD
330
1D
100
AcDbEntity
67
0
8
8
62
7
6
ByLayer
370
-1
48
1.0
60
0
100
AcDbText
1
 
10
659.678848
20
604.172044
30
0.0
40
5.0
41
1.0
50
0.0
51
0.0
7
Standard
11
659.678848
21
604.172044
31
0.0
210
0.0
220
0.0
230
1.0
72
0
100
AcDbText
73
0
0
TEXT
5
BE
330
1D
100
AcDbEntity
67
0
8
8
62
7
6
ByLayer
370
-1
48
1.0
60
0
100
AcDbText
1
[M]A
10
659.678848
20
596.98162
30
0.0
40
5.0
41
1.0
50
0.0
51
0.0
7
Standard
11
659.678848
21
596.98162
31
0.0
210
0.0
220
0.0
230
1.0
72
0
100
AcDbText
73
0
0
TEXT
5
BF
330
1D
100
AcDbEntity
67
0
8
8
62
7
6
ByLayer
370
-1
48
1.0
60
0
100
AcDbText
1
[T]6
10
659.678848
20
589.376365
30
0.0
40
5.0
41
1.0
50
0.0
51
0.0
7
Standard
11
659.678848
21
589.376365
31
0.0
210
0.0
220
0.0
230
1.0
72
0
100
AcDbText
73
0
0
TEXT
5
C0
330
1D
100
AcDbEntity
67
0
8
8
62
7
6
ByLayer
370
-1
48
1.0
60
0
100
AcDbText
1
[Q]1
10
659.678848
20
581.771109
30
0.0
40
5.0
41
1.0
50
0.0
51
0.0
7
Standard
11
659.678848
21
581.771109
31
0.0
210
0.0
220
0.0
230
1.0
72
0
100
AcDbText
73
0
0
TEXT
5
C1
330
1D
100
AcDbEntity
67
0
8
8
62
7
6
ByLayer
370
-1
48
1.0
60
0
100
AcDbText
1
[B]1162
10
659.678848
20
612.330409
30
0.0
40
5.0
41
1.0
50
0.0
51
0.0
7
Standard
11
659.678848
21
612.330409
31
0.0
210
0.0
220
0.0
230
1.0
72
0
100
AcDbText
73
0
0
TEXT
5
C2
330
1D
100
AcDbEntity
67
0
8
5
62
1
6
ByLayer
370
-1
48
1.0
60
0
100
AcDbText
1
1162-9001-A-6
10
673.193089
20
810.641351
30
0.0
40
19.858398
41
1.0
50
0.0
51
0.0
7
Standard
11
673.193089
21
810.641351
31
0.0
210
0.0
220
0.0
230
1.0
72
0
100
AcDbText
73
0
0
LWPOLYLINE
5
C3
330
1D
100
AcDbEntity
67
0
8
1
62
2
6
ByLayer
370
-1
48
1.0
60
0
100
AcDbPolyline
90
14
70
1
38
0.0
39
0.0
10
665.678848
20
619.443075
40
0.0
41
0.0
42
0.0
10
694.678848
20
619.443075
40
0.0
41
0.0
42
0.0
10
719.678848
20
644.443075
40
0.0
41
0.0
42
0.0
10
719.678848
20
739.123075
40
0.0
41
0.0
42
-0.430127
10
772.378848
20
789.053075
40
0.0
41
0.0
42
0.0
10
834.718848
20
785.673075
40
0.0
41
0.0
42
0.0
10
1013.748848
20
775.553075
40
0.0
41
0.0
42
0.0
10
1013.748848
20
840.673075
40
0.0
41
0.0
42
0.0
10
1003.768848
20
851.243075
40
0.0
41
0.0
42
0.0
10
838.858848
20
860.563075
40
0.0
41
0.0
42
0.0
10
684.638848
20
868.913075
40
0.0
41
0.0
42
-0.398475
10
659.678848
20
845.263075
40
0.0
41
0.0
42
0.0
10
659.678848
20
625.443075
40
0.0
41
0.0
42
0.0
10
665.678848
20
619.443075
40
0.0
41
0.0
42
0.0
210
0.0
220
0.0
230
1.0
0
TEXT
5
D84
330
1D
100
AcDbEntity
67
0
8
5
62
256
6
ByLayer
370
-1
48
1.0
60
0
100
AcDbText
1
 
10
0.0
20
0.0
30
0.0
40
10.0
41
1.0
50
0.0
51
0.0
7
Standard
11
0.0
21
0.0
31
0.0
210
0.0
220
0.0
230
1.0
72
0
100
AcDbText
73
1
0
TEXT
5
DF8
330
1D
100
AcDbEntity
67
0
8
8
62
7
6
ByLayer
370
-1
48
1.0
60
0
100
AcDbText
1
 
10
659.68884
20
604.892593
30
0.0
40
5.0
41
1.0
50
0.0
51
0.0
7
Standard
11
659.68884
21
604.892593
31
0.0
210
0.0
220
0.0
230
1.0
72
0
100
AcDbText
73
0
0
TEXT
5
E8C
330
1D
100
AcDbEntity
67
0
8
5
62
256
6
ByLayer
370
-1
48
1.0
60
0
100
AcDbText
1
 
10
0.0
20
0.0
30
0.0
40
10.0
41
1.0
50
0.0
51
0.0
7
Standard
11
0.0
21
0.0
31
0.0
210
0.0
220
0.0
230
1.0
72
0
100
AcDbText
73
1
0
TEXT
5
F00
330
1D
100
AcDbEntity
67
0
8
8
62
7
6
ByLayer
370
-1
48
1.0
60
0
100
AcDbText
1
[P]10267-1162-9001  
10
659.616723
20
604.672287
30
0.0
40
5.0
41
1.0
50
0.0
51
0.0
7
Standard
11
659.616723
21
604.672287
31
0.0
210
0.0
220
0.0
230
1.0
72
0
100
AcDbText
73
0
0
TEXT
5
1154
330
1D
100
AcDbEntity
67
0
8
8
62
256
6
ByLayer
370
-1
48
1.0
60
0
100
AcDbText
1
POZ=10267-1162-9001  SZT=1 MAT=A GR=6
10
0.0
20
0.0
30
0.0
40
5.0
41
1.0
50
0.0
51
0.0
7
Standard
11
0.0
21
0.0
31
0.0
210
0.0
220
0.0
230
1.0
72
0
100
AcDbText
73
1
0
TEXT
5
1164
330
1D
100
AcDbEntity
67
0
8
8
62
256
6
ByLayer
370
-1
48
1.0
60
0
100
AcDbText
1

10
0.0
20
0.0
30
0.0
40
5.0
41
1.0
50
0.0
51
0.0
7
Standard
11
0.0
21
0.0
31
0.0
210
0.0
220
0.0
230
1.0
72
0
100
AcDbText
73
1
0
TEXT
5
1174
330
1D
100
AcDbEntity
67
0
8
5
62
256
6
ByLayer
370
-1
48
1.0
60
0
100
AcDbText
1

10
0.0
20
0.0
30
0.0
40
10.0
41
1.0
50
0.0
51
0.0
7
Standard
11
0.0
21
0.0
31
0.0
210
0.0
220
0.0
230
1.0
72
0
100
AcDbText
73
1
0
ENDSEC
0
SECTION
2
OBJECTS
0
DICTIONARY
5
1175
330
0
100
AcDbDictionary
280
0
281
1
3
ACAD_GROUP
350
1176
3
ACAD_LAYOUT
350
1177
3
ACAD_MLINESTYLE
350
117B
0
DICTIONARY
5
1176
330
1175
100
AcDbDictionary
280
0
281
1
0
DICTIONARY
5
1177
330
1175
100
AcDbDictionary
280
0
281
1
3
Arkusz 1
350
1C
3
Model
350
1E
0
DICTIONARY
5
117B
330
1175
100
AcDbDictionary
280
0
281
1
3
Standard
350
18
0
LAYOUT
5
1C
330
1177
100
AcDbPlotSettings
1

2
none_device
4

6

40
0.0
41
0.0
42
0.0
43
0.0
44
0.0
45
0.0
46
0.0
47
0.0
48
0.0
49
0.0
140
0.0
141
0.0
142
1.0
143
1.0
70
688
72
0
73
0
74
5
7

75
16
76
0
77
2
78
300
147
1.0
148
0.0
149
0.0
100
AcDbLayout
1
Arkusz 1
70
1
71
1
10
-7.5
20
-7.5
11
0.0
21
0.0
12
0.0
22
0.0
32
0.0
14
100000000000000000000.0
24
100000000000000000000.0
34
100000000000000000000.0
15
-100000000000000000000.0
25
-100000000000000000000.0
35
-100000000000000000000.0
146
0.0
13
0.0
23
0.0
33
0.0
16
1.0
26
0.0
36
0.0
17
0.0
27
1.0
37
0.0
76
0
330
1B
0
LAYOUT
5
1E
330
1177
100
AcDbPlotSettings
1

2
none_device
4
Letter_(8.50_x_11.00_Inches)
6

40
6.35
41
6.35
42
6.35
43
6.35
44
215.9
45
279.4
46
0.0
47
0.0
48
0.0
49
0.0
140
0.0
141
0.0
142
1.0
143
1.0
70
1712
72
0
73
0
74
0
7

75
0
76
0
77
2
78
300
147
1.0
148
0.0
149
0.0
100
AcDbLayout
1
Model
70
1
71
1
10
-7.5
20
-7.5
11
12.0
21
9.0
12
0.0
22
0.0
32
0.0
14
659.616723
24
581.771109
34
0.0
15
1013.748848
25
868.913075
35
0.0
146
0.0
13
0.0
23
0.0
33
0.0
16
1.0
26
0.0
36
0.0
17
0.0
27
1.0
37
0.0
76
0
330
1D
0
MLINESTYLE
5
18
330
117B
100
AcDbMlineStyle
2
Standard
70
0
3

62
256
51
90.0
52
90.0
71
2
49
-0.5
62
256
6
ByLayer
49
0.5
62
256
6
ByLayer
0
ENDSEC
0
EOF
